<svg width="32" height="28" viewBox="0 0 32 28" fill="none" xmlns="http://www.w3.org/2000/svg">
<path d="M3.2 0H28.8C30.56 0 32 1.26 32 2.8V11.2H12.8V25.2H20.08C20.368 25.62 20.656 26.012 20.944 26.376C21.408 26.978 21.856 27.524 22.272 28H3.2C1.44 28 0 26.74 0 25.2V2.8C0 1.26 1.44 0 3.2 0ZM9.6 2.8H3.2V16.8H9.6V2.8ZM3.2 19.6V25.2H9.6V19.6H3.2ZM12.8 8.4H28.8V2.8H12.8V8.4ZM26.4 28C26.4 28 25.472 27.09 24.368 25.774C24.224 25.592 24.064 25.396 23.904 25.2C22.4 23.324 20.8 20.846 20.8 18.9C20.8 16.24 23.36 14 26.4 14C27.248 14 28.064 14.182 28.8 14.49C30.672 15.288 32 16.982 32 18.9C32 21.056 30.032 23.856 28.432 25.774C27.328 27.09 26.4 28 26.4 28ZM24.48 19.04C24.48 19.88 25.28 20.72 26.4 20.72C27.52 20.72 28.48 19.88 28.32 19.04C28.32 18.2 27.36 17.36 26.4 17.36C25.44 17.36 24.48 18.06 24.48 19.04Z" fill="#476CA2"/>
</svg>
