<svg width="37" height="32" viewBox="0 0 37 32" fill="none" xmlns="http://www.w3.org/2000/svg">
<path d="M9.77942 11.4853L17.9165 4.20971C20.1273 2.236 21.231 1.25 22.5735 1.25C23.9161 1.25 25.0215 2.236 27.2306 4.20971L35.3676 11.4853M12.3382 9.77941V30.25M32.8088 30.25V9.77941" stroke="#476CA2" stroke-width="2.5" stroke-linecap="round" stroke-linejoin="round"/>
<path d="M3.80882 20.0144C5.22202 20.0144 6.36765 18.4869 6.36765 16.6027C6.36765 14.7184 5.22202 13.1909 3.80882 13.1909C2.39562 13.1909 1.25 14.7184 1.25 16.6027C1.25 18.4869 2.39562 20.0144 3.80882 20.0144Z" stroke="#476CA2" stroke-width="2.5"/>
<path d="M3.80884 20.0143V30.2496" stroke="#476CA2" stroke-width="2.5" stroke-linecap="round"/>
<path d="M1.25 30.25H35.3676M18.3088 30.25V23.4265C18.3088 21.8178 18.3088 21.0144 18.8086 20.5145C19.3085 20.0147 20.1119 20.0147 21.7206 20.0147H23.4265C25.0351 20.0147 25.8386 20.0147 26.3384 20.5145C26.8382 21.0144 26.8382 21.8178 26.8382 23.4265V30.25M20.8676 14.8971H24.2794M20.8676 9.77942H24.2794" stroke="#476CA2" stroke-width="2.5" stroke-linecap="round" stroke-linejoin="round"/>
</svg>
