<svg width="45" height="45" viewBox="0 0 45 45" fill="none" xmlns="http://www.w3.org/2000/svg">
<path d="M10.7812 14.0625C10.7812 13.2481 11.0169 12.4512 11.4599 11.7678C11.9029 11.0844 12.5343 10.5439 13.2777 10.2114C14.0211 9.87896 14.8449 9.76878 15.6496 9.89419C16.4543 10.0196 17.2054 10.3752 17.8124 10.9181C18.0908 11.1642 18.4552 11.2902 18.8262 11.2684C19.1971 11.2467 19.5443 11.079 19.792 10.8021C20.0397 10.5252 20.1677 10.1615 20.1481 9.79043C20.1286 9.4194 19.9629 9.0712 19.6874 8.8219C19.0003 8.20002 18.1969 7.72013 17.3236 7.40983C16.4503 7.09953 15.5243 6.96494 14.5988 7.01381C13.6733 7.06267 12.7665 7.29403 11.9308 7.69456C11.095 8.0951 10.3466 8.65692 9.72877 9.3477C9.1109 10.0385 8.63568 10.8446 8.33046 11.7197C8.02525 12.5948 7.89604 13.5216 7.95029 14.4468C8.00453 15.372 8.24115 16.2774 8.64654 17.1108C9.05192 17.9442 9.61808 18.6893 10.3124 19.3031C10.5908 19.5492 10.9552 19.6752 11.3262 19.6534C11.6971 19.6317 12.0443 19.464 12.292 19.1871C12.5397 18.9102 12.6677 18.5465 12.6481 18.1754C12.6286 17.8044 12.4629 17.4562 12.1874 17.2069C11.7441 16.812 11.3895 16.3275 11.1471 15.7855C10.9047 15.2435 10.78 14.6563 10.7812 14.0625ZM29.9999 7.03127C28.2701 7.02955 26.6006 7.66729 25.3124 8.8219C25.037 9.0712 24.8713 9.4194 24.8517 9.79043C24.8321 10.1615 24.9602 10.5252 25.2079 10.8021C25.4556 11.079 25.8028 11.2467 26.1737 11.2684C26.5446 11.2902 26.9091 11.1642 27.1874 10.9181C28.0216 10.1722 29.118 9.78824 30.2353 9.85065C31.3526 9.91306 32.3993 10.4168 33.1453 11.251C33.8912 12.0851 34.2752 13.1815 34.2127 14.2988C34.1503 15.4161 33.6466 16.4629 32.8124 17.2088C32.5483 17.4609 32.3927 17.8059 32.3783 18.1708C32.364 18.5357 32.4922 18.8918 32.7358 19.1639C32.9794 19.4359 33.3192 19.6026 33.6834 19.6286C34.0477 19.6546 34.4077 19.5379 34.6874 19.3031C35.7488 18.3538 36.4968 17.1046 36.8327 15.7208C37.1685 14.337 37.0763 12.8838 36.5682 11.5536C36.06 10.2234 35.16 9.07875 33.9872 8.27123C32.8143 7.4637 31.4239 7.03131 29.9999 7.03127Z" fill="#476CA2"/>
<path d="M22.5 12.6563C21.5766 12.6562 20.6623 12.8381 19.8093 13.1915C18.9562 13.5448 18.1811 14.0627 17.5282 14.7157C16.8752 15.3686 16.3573 16.1437 16.004 16.9968C15.6506 17.8498 15.4688 18.7641 15.4688 19.6875C15.4688 20.6109 15.6506 21.5252 16.004 22.3782C16.3573 23.2313 16.8752 24.0064 17.5282 24.6593C18.1811 25.3123 18.9562 25.8302 19.8093 26.1835C20.6623 26.5369 21.5766 26.7188 22.5 26.7188C24.3648 26.7188 26.1532 25.978 27.4718 24.6593C28.7905 23.3407 29.5312 21.5523 29.5312 19.6875C29.5312 17.8227 28.7905 16.0343 27.4718 14.7157C26.1532 13.397 24.3648 12.6563 22.5 12.6563ZM11.6063 27.1425C11.785 27.0957 11.9528 27.0142 12.1001 26.9025C12.2473 26.7909 12.3711 26.6514 12.4645 26.4919C12.5578 26.3324 12.6188 26.1561 12.644 25.973C12.6691 25.79 12.658 25.6038 12.6112 25.425C12.5645 25.2462 12.4829 25.0784 12.3713 24.9312C12.2597 24.7839 12.1201 24.6601 11.9606 24.5668C11.8012 24.4735 11.6249 24.4125 11.4418 24.3873C11.2587 24.3621 11.0725 24.3732 10.8937 24.42C9.075 24.8981 7.45125 25.6987 6.255 26.775C5.055 27.8531 4.21875 29.28 4.21875 30.9375C4.21875 31.3105 4.36691 31.6681 4.63063 31.9319C4.89435 32.1956 5.25204 32.3438 5.625 32.3438C5.99796 32.3438 6.35565 32.1956 6.61937 31.9319C6.88309 31.6681 7.03125 31.3105 7.03125 30.9375C7.03125 30.2887 7.35 29.5706 8.1375 28.8656C8.925 28.1569 10.1137 27.5363 11.6063 27.1425ZM34.1063 24.4219C33.751 24.3427 33.379 24.4044 33.0683 24.5939C32.7576 24.7834 32.5324 25.086 32.4402 25.438C32.3479 25.79 32.3957 26.1641 32.5736 26.4816C32.7514 26.7991 33.0454 27.0354 33.3937 27.1406C34.8862 27.5344 36.075 28.1569 36.8625 28.8656C37.65 29.5706 37.9688 30.2906 37.9688 30.9375C37.9688 31.3105 38.1169 31.6681 38.3806 31.9319C38.6444 32.1956 39.002 32.3438 39.375 32.3438C39.748 32.3438 40.1056 32.1956 40.3694 31.9319C40.6331 31.6681 40.7812 31.3105 40.7812 30.9375C40.7812 29.28 39.945 27.8531 38.745 26.775C37.5487 25.6987 35.925 24.8981 34.1063 24.4219ZM22.5 29.5312C19.7006 29.5312 17.0981 30.21 15.1481 31.38C13.2263 32.5331 11.7188 34.3219 11.7188 36.5625C11.7188 36.9355 11.8669 37.2931 12.1306 37.5569C12.3944 37.8206 12.752 37.9688 13.125 37.9688C13.498 37.9688 13.8556 37.8206 14.1194 37.5569C14.3831 37.2931 14.5312 36.9355 14.5312 36.5625C14.5312 35.6963 15.1238 34.6744 16.5938 33.7912C18.0375 32.925 20.1225 32.3438 22.5 32.3438C24.8775 32.3438 26.9625 32.925 28.4062 33.7912C29.8762 34.6725 30.4688 35.6981 30.4688 36.5625C30.4688 36.9355 30.6169 37.2931 30.8806 37.5569C31.1444 37.8206 31.502 37.9688 31.875 37.9688C32.248 37.9688 32.6056 37.8206 32.8694 37.5569C33.1331 37.2931 33.2812 36.9355 33.2812 36.5625C33.2812 34.3219 31.7737 32.5312 29.8519 31.38C27.9019 30.21 25.2994 29.5312 22.5 29.5312Z" fill="#476CA2"/>
</svg>
